<mxfile host="Electron" agent="Mozilla/5.0 (Macintosh; Intel Mac OS X 10_15_7) AppleWebKit/537.36 (KHTML, like Gecko) draw.io/24.7.17 Chrome/128.0.6613.36 Electron/32.0.1 Safari/537.36" version="24.7.17">
  <diagram name="Page-1" id="hBoBq0eF_aggM5Ivi7u9">
    <mxGraphModel dx="1114" dy="756" grid="1" gridSize="10" guides="1" tooltips="1" connect="1" arrows="1" fold="1" page="1" pageScale="1" pageWidth="850" pageHeight="1100" math="0" shadow="0">
      <root>
        <mxCell id="0" />
        <mxCell id="1" parent="0" />
        <mxCell id="-efn8vALGl1YdwpLpWK5-9" value="" style="rounded=0;whiteSpace=wrap;html=1;" parent="1" vertex="1">
          <mxGeometry width="320" height="240" as="geometry" />
        </mxCell>
        <mxCell id="-efn8vALGl1YdwpLpWK5-7" value="Beer" style="strokeWidth=1;shadow=0;dashed=0;align=center;html=1;shape=mxgraph.mockup.buttons.button;strokeColor=#666666;mainText=;buttonStyle=round;fillColor=#008cff;whiteSpace=wrap;fontSize=18;" parent="1" vertex="1">
          <mxGeometry x="205" y="10" width="100" height="44" as="geometry" />
        </mxCell>
        <mxCell id="-efn8vALGl1YdwpLpWK5-8" value="Mode..." style="strokeWidth=1;shadow=0;dashed=0;align=center;html=1;shape=mxgraph.mockup.text.textBox;align=left;spacingLeft=4;spacingTop=-3;whiteSpace=wrap;strokeColor=#666666;mainText=;fontSize=18;verticalAlign=top;" parent="1" vertex="1">
          <mxGeometry x="5" y="10" width="195" height="26" as="geometry" />
        </mxCell>
        <mxCell id="-efn8vALGl1YdwpLpWK5-10" value="Chamber" style="strokeWidth=1;shadow=0;dashed=0;align=center;html=1;shape=mxgraph.mockup.buttons.button;strokeColor=#666666;mainText=;buttonStyle=round;fillColor=#008cff;whiteSpace=wrap;fontSize=18;" parent="1" vertex="1">
          <mxGeometry x="205" y="60" width="100" height="44" as="geometry" />
        </mxCell>
        <mxCell id="-efn8vALGl1YdwpLpWK5-11" value="Off" style="strokeWidth=1;shadow=0;dashed=0;align=center;html=1;shape=mxgraph.mockup.buttons.button;strokeColor=#666666;mainText=;buttonStyle=round;fillColor=#008cff;whiteSpace=wrap;fontSize=18;" parent="1" vertex="1">
          <mxGeometry x="205" y="110" width="100" height="44" as="geometry" />
        </mxCell>
        <mxCell id="-efn8vALGl1YdwpLpWK5-12" value="-" style="strokeWidth=1;shadow=0;dashed=0;align=center;html=1;shape=mxgraph.mockup.buttons.button;strokeColor=#666666;mainText=;buttonStyle=round;fillColor=#008cff;whiteSpace=wrap;fontSize=18;" parent="1" vertex="1">
          <mxGeometry x="30" y="161" width="44" height="44" as="geometry" />
        </mxCell>
        <mxCell id="-efn8vALGl1YdwpLpWK5-13" value="+" style="strokeWidth=1;shadow=0;dashed=0;align=center;html=1;shape=mxgraph.mockup.buttons.button;strokeColor=#666666;mainText=;buttonStyle=round;fillColor=#008cff;whiteSpace=wrap;fontSize=18;" parent="1" vertex="1">
          <mxGeometry x="234" y="161" width="44" height="44" as="geometry" />
        </mxCell>
        <mxCell id="-efn8vALGl1YdwpLpWK5-14" value="Beer" style="strokeWidth=1;shadow=0;dashed=0;align=center;html=1;shape=mxgraph.mockup.text.textBox;align=left;spacingLeft=4;spacingTop=-3;whiteSpace=wrap;strokeColor=#666666;mainText=;fontSize=18;verticalAlign=top;" parent="1" vertex="1">
          <mxGeometry x="5" y="82" width="90" height="26" as="geometry" />
        </mxCell>
        <mxCell id="-efn8vALGl1YdwpLpWK5-16" value="Chamber" style="strokeWidth=1;shadow=0;dashed=0;align=center;html=1;shape=mxgraph.mockup.text.textBox;align=left;spacingLeft=4;spacingTop=-3;whiteSpace=wrap;strokeColor=#666666;mainText=;fontSize=18;verticalAlign=top;" parent="1" vertex="1">
          <mxGeometry x="5" y="119" width="90" height="26" as="geometry" />
        </mxCell>
        <mxCell id="-efn8vALGl1YdwpLpWK5-17" value="10&amp;nbsp;&lt;span style=&quot;font-weight: bold; color: rgb(218, 220, 224); font-family: Arial, sans-serif; font-size: 14px; background-color: rgb(31, 31, 31);&quot;&gt;°&lt;/span&gt;C" style="strokeWidth=1;shadow=0;dashed=0;align=center;html=1;shape=mxgraph.mockup.text.textBox;align=left;spacingLeft=4;spacingTop=-3;whiteSpace=wrap;strokeColor=#666666;mainText=;fontSize=18;verticalAlign=top;" parent="1" vertex="1">
          <mxGeometry x="110" y="82" width="90" height="26" as="geometry" />
        </mxCell>
        <mxCell id="-efn8vALGl1YdwpLpWK5-18" value="10&amp;nbsp;&lt;span style=&quot;font-weight: bold; color: rgb(218, 220, 224); font-family: Arial, sans-serif; font-size: 14px; background-color: rgb(31, 31, 31);&quot;&gt;°&lt;/span&gt;C" style="strokeWidth=1;shadow=0;dashed=0;align=center;html=1;shape=mxgraph.mockup.text.textBox;align=left;spacingLeft=4;spacingTop=-3;whiteSpace=wrap;strokeColor=#666666;mainText=;fontSize=18;verticalAlign=top;" parent="1" vertex="1">
          <mxGeometry x="110" y="119" width="90" height="26" as="geometry" />
        </mxCell>
        <mxCell id="-efn8vALGl1YdwpLpWK5-19" value="10 °C" style="strokeWidth=1;shadow=0;dashed=0;align=left;shape=mxgraph.mockup.text.textBox;align=left;spacingLeft=4;spacingTop=-3;whiteSpace=wrap;strokeColor=#666666;mainText=;fontSize=18;verticalAlign=top;fontStyle=0" parent="1" vertex="1">
          <mxGeometry x="110" y="171" width="90" height="26" as="geometry" />
        </mxCell>
        <mxCell id="-efn8vALGl1YdwpLpWK5-21" value="&lt;h1 style=&quot;margin-top: 0px;&quot;&gt;Size&lt;/h1&gt;&lt;div&gt;Text size is 18 px, Text fields are 26px high&lt;/div&gt;&lt;p&gt;Buttons are 44 px high and 44 / 100 px width&lt;/p&gt;&lt;p&gt;Labels are Y offset (44-26)/2 = +9&lt;/p&gt;&lt;p&gt;Led Color can be RED, BLUE or GREY (OFF)&lt;/p&gt;" style="text;html=1;whiteSpace=wrap;overflow=hidden;rounded=0;" parent="1" vertex="1">
          <mxGeometry x="350" width="450" height="200" as="geometry" />
        </mxCell>
        <mxCell id="-b3Ku-cIu3cgLpvM2CON-1" value="State...." style="strokeWidth=1;shadow=0;dashed=0;align=center;html=1;shape=mxgraph.mockup.text.textBox;align=left;spacingLeft=4;spacingTop=-3;whiteSpace=wrap;strokeColor=#666666;mainText=;fontSize=18;verticalAlign=top;" parent="1" vertex="1">
          <mxGeometry x="5" y="44" width="195" height="26" as="geometry" />
        </mxCell>
        <mxCell id="aDBK71L5LKiDtXrck_T2-1" value="Status bar....." style="strokeWidth=1;shadow=0;dashed=0;align=center;html=1;shape=mxgraph.mockup.text.textBox;align=left;spacingLeft=4;spacingTop=-3;whiteSpace=wrap;strokeColor=#666666;mainText=;fontSize=12;verticalAlign=top;" vertex="1" parent="1">
          <mxGeometry x="5" y="214" width="305" height="16" as="geometry" />
        </mxCell>
      </root>
    </mxGraphModel>
  </diagram>
</mxfile>
